<svg xmlns="http://www.w3.org/2000/svg" viewBox="0 0 32 32"><path fill="#fafcf8" fill-rule="evenodd" d="M15 29.858c-7.168 0-13-5.832-13-13C2 10.725 6.277 5.593 12 4.234v-2.04C5.158 3.584 0 9.604 0 16.857c0 8.284 6.716 15 15 15 6.895 0 12.676-4.662 14.428-11h-2.084c-1.69 5.214-6.574 9-12.344 9zm3-15V2c6.452.927 11.497 6.27 11.965 12.858H18zM18.284.02C18.19.008 18.094 0 18 0c-.478 0-.944.172-1.31.49C16.252.87 16 1.42 16 2v12.858c0 1.105.895 2 2 2h11.965c.555 0 1.085-.23 1.463-.637.378-.403.57-.95.532-1.502C31.43 7.264 25.68 1.083 18.284.02z"/></svg>
