<svg xmlns="http://www.w3.org/2000/svg" viewBox="0 0 31 31"><path fill="#fafcf8" fill-rule="evenodd" d="M28 16c0 7.168-5.832 13-13 13S2 23.168 2 16 7.832 3 15 3s13 5.832 13 13m2.707-11.707l-4-4c-.39-.39-1.023-.39-1.414 0-.39.39-.39 1.023 0 1.414L26.586 3l-1.72 1.72C22.226 2.41 18.782 1 15 1 6.713 1 0 7.716 0 16c0 8.284 6.713 15 15 15 8.284 0 15-6.716 15-15 0-3.782-1.41-7.227-3.72-9.866L28 4.414l1.293 1.293c.195.195.45.293.707.293.256 0 .512-.098.707-.293.39-.39.39-1.023 0-1.414M16.354 18.38c-.23.23-.71.62-1.35.62-1.056-.003-1.997-1.123-2-2 .003-.586.926-3.335 1.998-6.21 1.073 2.872 1.997 5.622 2 6.215 0 .444-.247.97-.648 1.374m-1.352-8.59c-.418 0-.79.26-.937.65-.938 2.51-2.057 5.69-2.06 6.55.003 1.36 1.34 3 2.996 3.003 1.01-.003 1.73-.576 2.07-.917.59-.595.94-1.374.938-2.085-.002-.87-1.122-4.046-2.06-6.56-.148-.39-.52-.65-.938-.65M15 26C9.486 26 5 21.514 5 16S9.486 6 15 6s10 4.486 10 10-4.486 10-10 10m0-21C8.923 5 4 9.925 4 16s4.923 11 11 11c6.075 0 11-4.925 11-11S21.075 5 15 5"/></svg>
