<svg xmlns="http://www.w3.org/2000/svg" viewBox="0 0 31 32"><path fill="#225378" fill-rule="evenodd" d="M15.07 21.5c-3.032 0-5.5-2.467-5.5-5.5s2.468-5.5 5.5-5.5 5.5 2.467 5.5 5.5-2.468 5.5-5.5 5.5m0-12c-3.584 0-6.5 2.916-6.5 6.5s2.916 6.5 6.5 6.5 6.5-2.916 6.5-6.5-2.916-6.5-6.5-6.5m13.058 11.876l-1.874 3.246c-.015.022-.05.063-.157.06l-3.853-1.357-.44.385c-1.01.884-2.166 1.552-3.43 1.984l-.553.188-.75 4.01c-.01.04-.08.104-.13.108H13.2c-.042-.004-.118-.067-.13-.105l-.752-4.013-.55-.188c-1.266-.432-2.42-1.1-3.432-1.984l-.44-.385-3.866 1.357c-.06 0-.126-.038-.14-.058l-1.88-3.248c-.02-.038 0-.134.026-.163L5.13 18.56l-.114-.572c-.13-.662-.196-1.33-.196-1.988 0-.657.065-1.326.195-1.988l.113-.572-3.092-2.652c-.03-.03-.046-.126-.028-.164L3.88 7.377c.013-.02.08-.056.154-.058l3.854 1.35.44-.39c1.01-.89 2.166-1.56 3.43-1.99l.553-.19.76-4.01c.01-.04.09-.11.13-.11h3.75c.04 0 .12.06.13.1l.75 4.01.56.19c1.27.43 2.42 1.1 3.43 1.98l.44.383L26.13 7.3c.063 0 .13.04.143.06l1.87 3.25c.015.034 0 .13-.03.16l-3.09 2.66.11.57c.13.665.198 1.334.198 1.99 0 .652-.06 1.32-.19 1.986l-.11.575 3.09 2.65c.03.03.045.13.03.17m1.273-1.68L27.2 17.78c.09-.6.14-1.2.14-1.79 0-.59-.047-1.19-.136-1.79l2.22-1.91c.754-.643.956-1.82.46-2.68L28 6.37c-.485-.837-1.635-1.267-2.553-.943l-2.764.976c-.94-.748-1.98-1.347-3.092-1.788l-.54-2.882C18.85.766 17.93 0 16.94 0h-3.75c-.99 0-1.91.763-2.092 1.737l-.54 2.88c-1.115.442-2.15 1.04-3.092 1.79L4.698 5.43c-.918-.323-2.067.107-2.55.944L.272 9.624c-.498.857-.297 2.036.456 2.68l2.22 1.905c-.09.59-.134 1.19-.134 1.79s.045 1.19.133 1.79L.73 19.69c-.754.645-.955 1.824-.458 2.68l1.874 3.248c.485.84 1.634 1.27 2.552.946l2.768-.975c.94.75 1.977 1.35 3.092 1.79l.54 2.88c.182.97 1.1 1.74 2.093 1.74h3.75c.99 0 1.91-.77 2.1-1.74l.54-2.88c1.12-.44 2.15-1.04 3.1-1.79l2.77.97c.22.07.45.11.68.11.77 0 1.51-.42 1.88-1.06l1.878-3.25c.498-.86.296-2.04-.456-2.68"/></svg>
